<mxfile host="app.diagrams.net" modified="2024-03-05T02:31:23.416Z" agent="Mozilla/5.0 (Windows NT 10.0; Win64; x64) AppleWebKit/537.36 (KHTML, like Gecko) Chrome/122.0.0.0 Safari/537.36" version="22.1.18" etag="pJr8plOu3QChdGPgNg3O" type="github">
  <diagram name="第 1 页" id="bPep7FXkN7Bk1O6KERU5">
    <mxGraphModel>
      <root>
        <mxCell id="0" />
        <mxCell id="1" parent="0" />
      </root>
    </mxGraphModel>
  </diagram>
</mxfile>
